<?xml version="1.0" encoding="utf-8"?>
<svg xmlns="http://www.w3.org/2000/svg"
	xmlns:xlink="http://www.w3.org/1999/xlink"
	width="33px" height="40px" viewBox="0 0 33 40">
<path fillRule="evenodd" d="M 16.47 34.88C 16.47 34.88 16.47 37.5 16.47 37.5 16.47 37.5 20.28 37.5 20.28 37.5 21.01 37.5 21.6 38.06 21.6 38.75 21.6 39.44 21.01 40 20.28 40 20.28 40 10.29 40 10.29 40 9.56 40 8.97 39.44 8.97 38.75 8.97 38.06 9.56 37.5 10.29 37.5 10.29 37.5 13.96 37.5 13.96 37.5 13.96 37.5 13.96 35.04 13.96 35.04 13.95 35.04 13.95 35.04 13.94 35.04 11.47 35.04 9.07 34.58 6.81 33.68 6.17 33.42 5.85 32.69 6.11 32.05 6.37 31.41 7.11 31.1 7.76 31.36 9.72 32.14 11.8 32.54 13.94 32.54 23.52 32.54 30.47 25.66 30.47 16.18 30.47 10.48 27.42 5.3 22.31 2.33 21.71 1.98 21.51 1.21 21.86 0.61 22.22 0.02 22.99-0.18 23.6 0.17 29.48 3.6 33 9.58 33 16.18 33 26.25 26.18 33.76 16.47 34.88ZM 27.86 16.3C 27.86 23.91 21.62 30.04 13.93 30.04 6.24 30.04-0 23.91-0 16.3-0 8.69 6.24 2.48 13.93 2.48 21.62 2.48 27.86 8.69 27.86 16.3ZM 13.93 4.98C 7.64 4.98 2.53 10.08 2.53 16.3 2.53 22.51 7.64 27.54 13.93 27.54 20.21 27.54 25.33 22.51 25.33 16.3 25.33 10.08 20.21 4.98 13.93 4.98Z" fill="rgb(255,129,7)"/></svg>