<?xml version="1.0" encoding="utf-8"?>
<svg xmlns="http://www.w3.org/2000/svg"
	xmlns:xlink="http://www.w3.org/1999/xlink"
	width="40px" height="41px" viewBox="0 0 40 41">
<path fillRule="evenodd" d="M 39.34 11.79C 39.34 11.79 20.6 21.93 20.6 21.93 20.42 22.03 20.21 22.08 20.01 22.08 19.8 22.08 19.6 22.03 19.41 21.92 19.41 21.92 0.87 11.79 0.87 11.79 0.46 11.56 0.21 11.13 0.22 10.66 0.23 10.2 0.49 9.77 0.91 9.56 0.91 9.56 19.64 0.11 19.64 0.11 20-0.07 20.42-0.07 20.77 0.11 20.77 0.11 39.31 9.57 39.31 9.57 39.72 9.78 39.99 10.2 39.99 10.67 40 11.14 39.75 11.57 39.34 11.79ZM 20.2 2.64C 20.2 2.64 4.16 10.73 4.16 10.73 4.16 10.73 20.01 19.4 20.01 19.4 20.01 19.4 36.05 10.72 36.05 10.72 36.05 10.72 20.2 2.64 20.2 2.64ZM 0.69 18.78C 0.69 18.78 4.61 16.8 4.61 16.8 4.61 16.8 7.28 18.26 7.28 18.26 7.28 18.26 3.95 19.94 3.95 19.94 3.95 19.94 19.8 28.61 19.8 28.61 19.8 28.61 35.84 19.93 35.84 19.93 35.84 19.93 32.71 18.34 32.71 18.34 32.71 18.34 35.39 16.89 35.39 16.89 35.39 16.89 39.1 18.78 39.1 18.78 39.51 18.99 39.77 19.42 39.78 19.88 39.79 20.35 39.53 20.78 39.12 21 39.12 21 20.39 31.14 20.39 31.14 20.2 31.24 20 31.29 19.79 31.29 19.59 31.29 19.38 31.24 19.2 31.14 19.2 31.14 0.66 21 0.66 21 0.25 20.78-0 20.34 0.01 19.88 0.01 19.41 0.28 18.99 0.69 18.78ZM 0.69 27.56C 0.69 27.56 4.37 25.85 4.37 25.85 4.37 25.85 7.04 27.31 7.04 27.31 7.04 27.31 3.95 28.72 3.95 28.72 3.95 28.72 19.8 37.39 19.8 37.39 19.8 37.39 35.84 28.71 35.84 28.71 35.84 28.71 32.91 27.27 32.91 27.27 32.91 27.27 35.59 25.83 35.59 25.83 35.59 25.83 39.1 27.56 39.1 27.56 39.51 27.77 39.77 28.19 39.78 28.66 39.79 29.13 39.53 29.56 39.12 29.78 39.12 29.78 20.39 39.92 20.39 39.92 20.2 40.02 20 40.07 19.79 40.07 19.59 40.07 19.38 40.02 19.2 39.91 19.2 39.91 0.66 29.78 0.66 29.78 0.25 29.55-0 29.12 0.01 28.66 0.01 28.19 0.28 27.77 0.69 27.56Z" fill="rgb(255,129,7)"/></svg>