<?xml version="1.0" encoding="utf-8"?>
<svg xmlns="http://www.w3.org/2000/svg"
	xmlns:xlink="http://www.w3.org/1999/xlink"
	width="40px" height="40px" viewBox="0 0 40 40">
<path fillRule="evenodd" d="M 39.87 18.04C 39.66 18.45 39.25 18.71 38.8 18.73 38.8 18.73 31.64 18.98 31.64 18.98 31.64 18.98 27.21 24.73 27.21 24.73 26.97 25.04 26.61 25.22 26.23 25.22 26.16 25.22 26.1 25.21 26.04 25.2 25.59 25.13 25.21 24.82 25.06 24.39 25.06 24.39 22.95 18.61 22.95 18.61 22.9 18.71 22.85 18.81 22.77 18.9 22.77 18.9 2.1 39.63 2.1 39.63 1.86 39.87 1.54 40 1.22 40 0.9 40 0.59 39.87 0.34 39.63-0.14 39.14-0.14 38.35 0.34 37.86 0.34 37.86 21 17.13 21 17.13 21.04 17.09 21.09 17.08 21.13 17.05 21.13 17.05 15.76 15.12 15.76 15.12 15.33 14.96 15.02 14.59 14.95 14.14 14.88 13.69 15.06 13.24 15.41 12.95 15.41 12.95 21.12 8.48 21.12 8.48 21.12 8.48 21.33 1.22 21.33 1.22 21.35 0.76 21.61 0.35 22.01 0.14 22.41-0.07 22.89-0.04 23.27 0.22 23.27 0.22 29.28 4.28 29.28 4.28 29.28 4.28 36.23 2.24 36.23 2.24 36.67 2.11 37.14 2.23 37.46 2.55 37.78 2.87 37.9 3.35 37.78 3.78 37.78 3.78 35.79 10.77 35.79 10.77 35.79 10.77 39.79 16.77 39.79 16.77 40.04 17.15 40.07 17.64 39.87 18.04ZM 33.4 11.69C 33.19 11.38 33.13 11 33.23 10.64 33.23 10.64 34.76 5.27 34.76 5.27 34.76 5.27 29.42 6.84 29.42 6.84 29.06 6.94 28.68 6.88 28.37 6.68 28.37 6.68 23.75 3.56 23.75 3.56 23.75 3.56 23.59 9.14 23.59 9.14 23.58 9.51 23.4 9.86 23.11 10.09 23.11 10.09 18.73 13.53 18.73 13.53 18.73 13.53 23.97 15.41 23.97 15.41 24.32 15.54 24.59 15.81 24.72 16.16 24.72 16.16 26.62 21.41 26.62 21.41 26.62 21.41 30.03 16.99 30.03 16.99 30.25 16.7 30.6 16.52 30.97 16.5 30.97 16.5 36.53 16.31 36.53 16.31 36.53 16.31 33.4 11.69 33.4 11.69Z" fill="rgb(255,129,7)"/></svg>