<?xml version="1.0" encoding="utf-8"?>
<svg xmlns="http://www.w3.org/2000/svg"
	xmlns:xlink="http://www.w3.org/1999/xlink"
	width="50px" height="40px" viewBox="0 0 50 40">
<path fillRule="evenodd" d="M 46.87 32.3C 46.87 32.3 26.56 32.3 26.56 32.3 26.56 32.3 26.56 36.92 26.56 36.92 26.56 36.92 34.37 36.92 34.37 36.92 35.24 36.92 35.94 37.61 35.94 38.46 35.94 39.31 35.24 40 34.37 40 34.37 40 15.62 40 15.62 40 14.76 40 14.06 39.31 14.06 38.46 14.06 37.61 14.76 36.92 15.62 36.92 15.62 36.92 23.44 36.92 23.44 36.92 23.44 36.92 23.44 32.3 23.44 32.3 23.44 32.3 3.12 32.3 3.12 32.3 1.41 32.3-0 30.92-0 29.23-0 29.23-0 3.08-0 3.08-0 1.39 1.41 0 3.12 0 3.12 0 46.87 0 46.87 0 48.59 0 50 1.39 50 3.08 50 3.08 50 29.23 50 29.23 50 30.92 48.59 32.3 46.87 32.3ZM 46.87 3.08C 46.87 3.08 3.12 3.08 3.12 3.08 3.12 3.08 3.12 29.23 3.12 29.23 3.12 29.23 46.87 29.23 46.87 29.23 46.87 29.23 46.87 3.08 46.87 3.08Z" fill="rgb(255,129,7)"/></svg>