<?xml version="1.0" encoding="utf-8"?>
<svg xmlns="http://www.w3.org/2000/svg"
	xmlns:xlink="http://www.w3.org/1999/xlink"
	width="40px" height="41px" viewBox="0 0 40 41">
<path fillRule="evenodd" d="M 38.11 9.61C 36.88 10.89 21.67 25.9 20.88 26.68 20.76 26.8 20.61 26.89 20.45 26.94 19.2 27.31 11.61 29.77 11.53 29.8 11.43 29.83 11.32 29.85 11.21 29.85 10.94 29.85 10.67 29.74 10.47 29.54 10.2 29.27 10.09 28.85 10.21 28.48 10.23 28.4 12.48 21.03 12.92 19.37 12.97 19.19 13.07 19.03 13.2 18.9 13.2 18.9 29.74 2.33 30.33 1.75 30.74 1.34 32.25-0 34.33-0 35.66-0 36.9 0.54 38.03 1.63 39.3 2.86 39.97 4.17 39.99 5.54 40.02 6.93 39.38 8.3 38.11 9.61ZM 36.3 3.43C 35.64 2.81 35 2.5 34.33 2.5 33.15 2.5 32.19 3.42 32.09 3.53 31.55 4.06 17.37 18.25 15.23 20.4 14.87 21.67 14.07 24.35 13.4 26.57 15.48 25.89 18.23 25 19.38 24.65 19.38 24.65 20.15 23.89 20.15 23.89 30.18 13.98 35.62 8.59 36.32 7.87 37.11 7.05 37.51 6.28 37.49 5.59 37.48 4.91 37.08 4.19 36.3 3.43ZM 2.5 6.28C 2.5 6.28 2.5 37.56 2.5 37.56 2.5 37.56 31.2 37.56 31.2 37.56 31.2 37.56 31.2 21.62 31.2 21.62 31.2 21.62 33.7 19.23 33.7 19.23 33.7 19.23 33.7 37.56 33.7 37.56 33.7 38.94 32.58 40.07 31.2 40.07 31.2 40.07 2.5 40.07 2.5 40.07 1.12 40.07-0 38.94-0 37.56-0 37.56-0 6.28-0 6.28-0 4.89 1.12 3.77 2.5 3.77 2.5 3.77 22.49 3.77 22.49 3.77 22.49 3.77 22.56 3.84 22.56 3.84 22.56 3.84 20.03 6.28 20.03 6.28 20.03 6.28 2.5 6.28 2.5 6.28Z" fill="rgb(255,129,7)"/></svg>