<?xml version="1.0" encoding="utf-8"?>
<svg xmlns="http://www.w3.org/2000/svg"
	xmlns:xlink="http://www.w3.org/1999/xlink"
	width="40px" height="40px" viewBox="0 0 40 40">
<path fillRule="evenodd" d="M 38.32 14.93C 37.44 17.3 36.55 18.9 34.08 21.08 32.34 22.64 28.12 24.6 25.29 26.18 24.26 26.76 23.16 27.35 22.53 27.74 22.53 27.74 22.53 34.17 22.53 34.17 22.53 34.53 22.37 34.88 22.1 35.11 22.1 35.11 17.48 39.71 17.48 39.71 17.25 39.9 16.96 40.01 16.66 40.01 16.53 40.01 16.4 39.99 16.28 39.95 15.86 39.81 15.55 39.47 15.45 39.05 15.45 39.05 13.93 32.63 13.93 32.63 13.93 32.63 11.11 29.51 11.11 29.51 9.76 28.01 8.91 27.07 8.41 26.45 8.41 26.45 0.96 24.75 0.96 24.75 0.53 24.65 0.19 24.33 0.05 23.91-0.08 23.5 0.02 23.04 0.31 22.71 0.31 22.71 4.88 17.75 4.88 17.75 5.12 17.49 5.46 17.34 5.81 17.34 5.81 17.34 12.75 17.34 12.75 17.34 13.19 16.56 13.7 15.54 14.23 14.48 15.61 11.74 17.17 8.42 18.74 6.59 20.63 4.4 22.65 2.94 25.1 2.03 31.82-0.48 38.8 0.03 38.8 0.03 39.42 0.08 39.91 0.58 39.95 1.2 39.97 1.53 40.42 9.29 38.32 14.93ZM 37.5 2.48C 35.33 2.47 30.58 2.65 25.97 4.36 23.9 5.14 22.26 6.32 20.64 8.21 19.26 9.81 17.71 13.11 16.46 15.6 15.72 17.07 15.08 18.34 14.53 19.23 14.31 19.6 13.91 19.83 13.47 19.83 13.47 19.83 6.38 19.83 6.38 19.83 6.38 19.83 3.57 22.79 3.57 22.79 3.57 22.79 9.29 24.09 9.29 24.09 9.56 24.16 9.8 24.31 9.97 24.52 10.24 24.82 13.7 28.66 16 31.2 16.14 31.36 16.24 31.55 16.29 31.75 16.29 31.75 17.41 36.48 17.41 36.48 17.41 36.48 20.04 33.6 20.04 33.6 20.04 33.6 20.04 27.08 20.04 27.08 20.04 26.71 20.21 26.35 20.5 26.12 21 25.7 22.15 25.08 24.08 24 26.65 22.56 30.88 20.59 32.43 19.22 34.52 17.36 35.22 16.13 35.98 14.06 37.45 10.11 37.54 4.78 37.5 2.48ZM 27.52 17.4C 24.76 17.4 22.52 15.16 22.52 12.4 22.52 9.65 24.76 7.4 27.52 7.4 30.28 7.4 32.53 9.65 32.53 12.4 32.53 15.16 30.28 17.4 27.52 17.4ZM 27.52 9.91C 26.15 9.91 25.02 11.03 25.02 12.4 25.02 13.78 26.15 14.9 27.52 14.9 28.9 14.9 30.02 13.78 30.02 12.4 30.02 11.03 28.9 9.91 27.52 9.91ZM 3.99 29.64C 4.63 29.33 5.29 29.04 6.01 28.49 6.01 28.49 7.53 30.42 7.53 30.42 6.62 31.12 5.78 31.54 5.11 31.87 3.5 32.68 2.7 33.13 2.57 37.33 6.94 37.17 7.43 36.09 8.21 34.46 8.52 33.83 8.87 33.11 9.42 32.35 9.42 32.35 11.27 34.03 11.27 34.03 10.81 34.79 10.66 35.17 10.39 35.73 9.15 38.3 7.92 39.8 1.3 39.8 1.3 39.8 0.08 39.82 0.08 39.82 0.08 39.82 0.06 38.55 0.06 38.55 0.06 32.29 1.32 30.98 3.99 29.64Z" fill="rgb(255,129,7)"/></svg>