<?xml version="1.0" encoding="utf-8"?>
<svg xmlns="http://www.w3.org/2000/svg"
	xmlns:xlink="http://www.w3.org/1999/xlink"
	width="40px" height="41px" viewBox="0 0 40 41">
<path fillRule="evenodd" d="M 37.5 23.89C 37.5 23.89 34.25 24.7 34.25 24.7 34.01 25.45 33.71 26.16 33.36 26.85 33.36 26.85 35.09 29.75 35.09 29.75 35.74 30.79 36.07 32.31 35.09 33.29 35.09 33.29 33.33 35.06 33.33 35.06 32.35 36.04 30.7 35.86 29.71 35.17 29.71 35.17 26.89 33.37 26.89 33.37 26.17 33.74 25.41 34.07 24.63 34.32 24.63 34.32 23.91 37.58 23.91 37.58 23.69 38.77 22.65 40.07 21.27 40.07 21.27 40.07 18.77 40.07 18.77 40.07 17.39 40.07 16.54 38.75 16.27 37.56 16.27 37.56 15.47 34.36 15.47 34.36 14.62 34.09 13.8 33.74 13.02 33.33 13.02 33.33 10.13 35.17 10.13 35.17 9.13 35.86 7.49 36.04 6.51 35.06 6.51 35.06 4.74 33.29 4.74 33.29 3.77 32.31 4.09 30.79 4.74 29.75 4.74 29.75 6.57 26.7 6.57 26.7 6.25 26.05 5.97 25.39 5.75 24.7 5.75 24.7 2.5 23.89 2.5 23.89 1.31 23.61-0 22.77-0 21.38-0 21.38-0 18.88-0 18.88-0 17.5 1.29 16.45 2.48 16.24 2.48 16.24 5.69 15.53 5.69 15.53 5.92 14.78 6.23 14.06 6.57 13.37 6.57 13.37 4.74 10.32 4.74 10.32 4.09 9.29 3.77 7.76 4.74 6.78 4.74 6.78 6.51 5.01 6.51 5.01 7.49 4.03 9.13 4.21 10.13 4.9 10.13 4.9 13.01 6.74 13.01 6.74 13.79 6.33 14.6 5.99 15.45 5.72 15.45 5.72 16.25 2.5 16.25 2.5 16.52 1.31 17.37-0 18.75-0 18.75-0 21.25-0 21.25-0 22.63-0 23.67 1.29 23.89 2.48 23.89 2.48 24.61 5.74 24.61 5.74 25.4 5.99 26.16 6.32 26.89 6.7 26.89 6.7 29.71 4.9 29.71 4.9 30.7 4.21 32.35 4.03 33.33 5.01 33.33 5.01 35.09 6.78 35.09 6.78 36.07 7.76 35.74 9.29 35.09 10.32 35.09 10.32 33.36 13.22 33.36 13.22 33.73 13.96 34.06 14.72 34.31 15.53 34.31 15.53 37.52 16.24 37.52 16.24 38.71 16.45 40 17.5 40 18.88 40 18.88 40 21.38 40 21.38 40 22.77 38.69 23.61 37.5 23.89ZM 36.98 18.68C 36.98 18.68 32.36 17.66 32.36 17.66 32.36 17.66 31.92 16.27 31.92 16.27 31.73 15.65 31.47 15.03 31.13 14.36 31.13 14.36 30.5 13.12 30.5 13.12 30.5 13.12 32.97 9 32.97 9 33.11 8.78 33.18 8.56 33.2 8.43 33.2 8.43 31.56 6.83 31.56 6.83 31.4 6.83 31.22 6.9 31.05 7.01 31.05 7.01 27.02 9.59 27.02 9.59 27.02 9.59 25.74 8.92 25.74 8.92 25.12 8.59 24.48 8.33 23.84 8.12 23.84 8.12 22.48 7.68 22.48 7.68 22.48 7.68 21.43 2.93 21.43 2.93 21.39 2.75 21.23 2.53 21.25 2.5 21.25 2.5 18.93 2.5 18.93 2.5 18.85 2.61 18.74 2.82 18.68 3.11 18.68 3.11 17.54 7.68 17.54 7.68 17.54 7.68 16.21 8.1 16.21 8.1 15.52 8.32 14.84 8.61 14.18 8.96 14.18 8.96 12.89 9.63 12.89 9.63 12.89 9.63 8.7 6.96 8.7 6.96 8.62 6.9 8.44 6.83 8.28 6.78 8.28 6.78 6.63 8.43 6.63 8.43 6.66 8.56 6.73 8.78 6.89 9.04 6.89 9.04 9.42 13.26 9.42 13.26 9.42 13.26 8.81 14.49 8.81 14.49 8.49 15.13 8.25 15.71 8.07 16.28 8.07 16.28 7.64 17.66 7.64 17.66 7.64 17.66 2.92 18.7 2.92 18.7 2.75 18.74 2.55 18.88 2.51 18.88 2.5 18.88 2.5 18.88 2.5 18.88 2.5 18.88 2.5 21.21 2.5 21.21 2.61 21.29 2.82 21.39 3.11 21.46 3.11 21.46 7.7 22.61 7.7 22.61 7.7 22.61 8.12 23.93 8.12 23.93 8.3 24.46 8.52 25.01 8.81 25.58 8.81 25.58 9.42 26.81 9.42 26.81 9.42 26.81 6.86 31.08 6.86 31.08 6.72 31.3 6.66 31.51 6.63 31.64 6.63 31.64 8.27 33.24 8.27 33.24 8.44 33.24 8.62 33.17 8.79 33.06 8.79 33.06 12.9 30.43 12.9 30.43 12.9 30.43 14.19 31.11 14.19 31.11 14.85 31.46 15.54 31.75 16.22 31.97 16.22 31.97 17.56 32.39 17.56 32.39 17.56 32.39 18.71 37 18.71 37 18.76 37.25 18.87 37.46 18.94 37.56 18.94 37.56 21.19 37.56 21.19 37.56 21.29 37.49 21.42 37.29 21.47 37.04 21.47 37.04 22.5 32.38 22.5 32.38 22.5 32.38 23.86 31.94 23.86 31.94 24.49 31.73 25.12 31.47 25.74 31.15 25.74 31.15 27.02 30.48 27.02 30.48 27.02 30.48 31.13 33.11 31.13 33.11 31.22 33.17 31.4 33.24 31.56 33.29 31.56 33.29 33.2 31.64 33.2 31.64 33.18 31.51 33.11 31.29 32.95 31.04 32.95 31.04 30.5 26.95 30.5 26.95 30.5 26.95 31.13 25.71 31.13 25.71 31.43 25.12 31.68 24.52 31.88 23.92 31.88 23.92 32.31 22.61 32.31 22.61 32.31 22.61 36.94 21.45 36.94 21.45 37.19 21.39 37.39 21.28 37.5 21.21 37.5 21.21 37.52 18.99 37.52 18.99 37.47 18.9 37.26 18.74 36.98 18.68ZM 20.02 27.56C 15.87 27.56 12.49 24.18 12.49 20.03 12.49 15.88 15.87 12.51 20.02 12.51 24.17 12.51 27.55 15.88 27.55 20.03 27.55 24.18 24.17 27.56 20.02 27.56ZM 20 15.02C 17.24 15.02 15 17.27 15 20.03 15 22.79 17.24 25.04 20 25.04 22.76 25.04 25 22.79 25 20.03 25 17.27 22.76 15.02 20 15.02Z" fill="rgb(255,129,7)"/></svg>