<?xml version="1.0" encoding="utf-8"?><svg width="130" height="122" viewBox="0 0 130 122" xmlns="http://www.w3.org/2000/svg" xmlns:xlink="http://www.w3.org/1999/xlink"><svg width="33" height="40" viewBox="0 0 33 40" id="globe_2" x="90" y="41" xmlns="http://www.w3.org/2000/svg"><path d="M16.47 34.88v2.62h3.81c.73 0 1.32.56 1.32 1.25S21.01 40 20.28 40h-9.99c-.73 0-1.32-.56-1.32-1.25s.59-1.25 1.32-1.25h3.67v-2.46h-.02c-2.47 0-4.87-.46-7.13-1.36-.64-.26-.96-.99-.7-1.63.26-.64 1-.95 1.65-.69 1.96.78 4.04 1.18 6.18 1.18 9.58 0 16.53-6.88 16.53-16.36 0-5.7-3.05-10.88-8.16-13.85-.6-.35-.8-1.12-.45-1.72.36-.59 1.13-.79 1.74-.44C29.48 3.6 33 9.58 33 16.18c0 10.07-6.82 17.58-16.53 18.7zM27.86 16.3c0 7.61-6.24 13.74-13.93 13.74C6.24 30.04 0 23.91 0 16.3S6.24 2.48 13.93 2.48c7.69 0 13.93 6.21 13.93 13.82zM13.93 4.98c-6.29 0-11.4 5.1-11.4 11.32 0 6.21 5.11 11.24 11.4 11.24 6.28 0 11.4-5.03 11.4-11.24 0-6.22-5.12-11.32-11.4-11.32z" fill="#FF8107"/></svg><svg width="40" height="41" viewBox="0 0 40 41" id="layers" y="40" xmlns="http://www.w3.org/2000/svg"><path d="M39.34 11.79L20.6 21.93c-.18.1-.39.15-.59.15-.21 0-.41-.05-.6-.16L.87 11.79a1.262 1.262 0 0 1 .04-2.23L19.64.11c.36-.18.78-.18 1.13 0l18.54 9.46c.41.21.68.63.68 1.1.01.47-.24.9-.65 1.12zM20.2 2.64L4.16 10.73l15.85 8.67 16.04-8.68L20.2 2.64zM.69 18.78l3.92-1.98 2.67 1.46-3.33 1.68 15.85 8.67 16.04-8.68-3.13-1.59 2.68-1.45 3.71 1.89c.41.21.67.64.68 1.1.01.47-.25.9-.66 1.12L20.39 31.14c-.19.1-.39.15-.6.15-.2 0-.41-.05-.59-.15L.66 21c-.41-.22-.66-.66-.65-1.12 0-.47.27-.89.68-1.1zm0 8.78l3.68-1.71 2.67 1.46-3.09 1.41 15.85 8.67 16.04-8.68-2.93-1.44 2.68-1.44 3.51 1.73c.41.21.67.63.68 1.1.01.47-.25.9-.66 1.12L20.39 39.92c-.19.1-.39.15-.6.15-.2 0-.41-.05-.59-.16L.66 29.78c-.41-.23-.66-.66-.65-1.12 0-.47.27-.89.68-1.1z" fill="#FF8107"/></svg><svg width="40" height="40" viewBox="0 0 40 40" id="magic_wand" x="50" y="41" xmlns="http://www.w3.org/2000/svg"><path d="M39.87 18.04c-.21.41-.62.67-1.07.69l-7.16.25-4.43 5.75c-.24.31-.6.49-.98.49-.07 0-.13-.01-.19-.02-.45-.07-.83-.38-.98-.81l-2.11-5.78c-.05.1-.1.2-.18.29L2.1 39.63c-.24.24-.56.37-.88.37-.32 0-.63-.13-.88-.37-.48-.49-.48-1.28 0-1.77L21 17.13c.04-.04.09-.05.13-.08l-5.37-1.93c-.43-.16-.74-.53-.81-.98-.07-.45.11-.9.46-1.19l5.71-4.47.21-7.26c.02-.46.28-.87.68-1.08.4-.21.88-.18 1.26.08l6.01 4.06 6.95-2.04c.44-.13.91-.01 1.23.31.32.32.44.8.32 1.23l-1.99 6.99 4 6c.25.38.28.87.08 1.27zm-6.47-6.35a1.26 1.26 0 0 1-.17-1.05l1.53-5.37-5.34 1.57c-.36.1-.74.04-1.05-.16l-4.62-3.12-.16 5.58c-.01.37-.19.72-.48.95l-4.38 3.44 5.24 1.88c.35.13.62.4.75.75l1.9 5.25 3.41-4.42c.22-.29.57-.47.94-.49l5.56-.19-3.13-4.62z" fill="#FF8107"/></svg><svg width="50" height="40" viewBox="0 0 50 40" id="monitor" xmlns="http://www.w3.org/2000/svg"><path d="M46.87 32.3H26.56v4.62h7.81c.87 0 1.57.69 1.57 1.54 0 .85-.7 1.54-1.57 1.54H15.62c-.86 0-1.56-.69-1.56-1.54 0-.85.7-1.54 1.56-1.54h7.82V32.3H3.12C1.41 32.3 0 30.92 0 29.23V3.08C0 1.39 1.41 0 3.12 0h43.75C48.59 0 50 1.39 50 3.08v26.15c0 1.69-1.41 3.07-3.13 3.07zm0-29.22H3.12v26.15h43.75V3.08z" fill="#FF8107"/></svg><svg width="40" height="41" viewBox="0 0 40 41" id="note" x="50" xmlns="http://www.w3.org/2000/svg"><path d="M38.11 9.61c-1.23 1.28-16.44 16.29-17.23 17.07-.12.12-.27.21-.43.26-1.25.37-8.84 2.83-8.92 2.86-.1.03-.21.05-.32.05a1.054 1.054 0 0 1-1-1.37c.02-.08 2.27-7.45 2.71-9.11.05-.18.15-.34.28-.47 0 0 16.54-16.57 17.13-17.15.41-.41 1.92-1.75 4-1.75 1.33 0 2.57.54 3.7 1.63 1.27 1.23 1.94 2.54 1.96 3.91.03 1.39-.61 2.76-1.88 4.07zM36.3 3.43c-.66-.62-1.3-.93-1.97-.93-1.18 0-2.14.92-2.24 1.03-.54.53-14.72 14.72-16.86 16.87-.36 1.27-1.16 3.95-1.83 6.17 2.08-.68 4.83-1.57 5.98-1.92l.77-.76c10.03-9.91 15.47-15.3 16.17-16.02.79-.82 1.19-1.59 1.17-2.28-.01-.68-.41-1.4-1.19-2.16zM2.5 6.28v31.28h28.7V21.62l2.5-2.39v18.33a2.51 2.51 0 0 1-2.5 2.51H2.5A2.51 2.51 0 0 1 0 37.56V6.28c0-1.39 1.12-2.51 2.5-2.51h19.99l.07.07-2.53 2.44H2.5z" fill="#FF8107"/></svg><svg width="40" height="40" viewBox="0 0 40 40" id="rocket" x="40" y="81" xmlns="http://www.w3.org/2000/svg"><path d="M38.32 14.93c-.88 2.37-1.77 3.97-4.24 6.15-1.74 1.56-5.96 3.52-8.79 5.1-1.03.58-2.13 1.17-2.76 1.56v6.43c0 .36-.16.71-.43.94l-4.62 4.6c-.23.19-.52.3-.82.3a1.255 1.255 0 0 1-1.21-.96l-1.52-6.42-2.82-3.12c-1.35-1.5-2.2-2.44-2.7-3.06l-7.45-1.7c-.43-.1-.77-.42-.91-.84-.13-.41-.03-.87.26-1.2l4.57-4.96c.24-.26.58-.41.93-.41h6.94c.44-.78.95-1.8 1.48-2.86 1.38-2.74 2.94-6.06 4.51-7.89 1.89-2.19 3.91-3.65 6.36-4.56 6.72-2.51 13.7-2 13.7-2 .62.05 1.11.55 1.15 1.17.02.33.47 8.09-1.63 13.73zM37.5 2.48c-2.17-.01-6.92.17-11.53 1.88-2.07.78-3.71 1.96-5.33 3.85-1.38 1.6-2.93 4.9-4.18 7.39-.74 1.47-1.38 2.74-1.93 3.63-.22.37-.62.6-1.06.6H6.38l-2.81 2.96 5.72 1.3c.27.07.51.22.68.43.27.3 3.73 4.14 6.03 6.68.14.16.24.35.29.55l1.12 4.73 2.63-2.88v-6.52c0-.37.17-.73.46-.96.5-.42 1.65-1.04 3.58-2.12 2.57-1.44 6.8-3.41 8.35-4.78 2.09-1.86 2.79-3.09 3.55-5.16 1.47-3.95 1.56-9.28 1.52-11.58zM27.52 17.4c-2.76 0-5-2.24-5-5 0-2.75 2.24-5 5-5s5.01 2.25 5.01 5c0 2.76-2.25 5-5.01 5zm0-7.49c-1.37 0-2.5 1.12-2.5 2.49 0 1.38 1.13 2.5 2.5 2.5a2.5 2.5 0 0 0 2.5-2.5c0-1.37-1.12-2.49-2.5-2.49zM3.99 29.64c.64-.31 1.3-.6 2.02-1.15l1.52 1.93c-.91.7-1.75 1.12-2.42 1.45-1.61.81-2.41 1.26-2.54 5.46 4.37-.16 4.86-1.24 5.64-2.87.31-.63.66-1.35 1.21-2.11l1.85 1.68c-.46.76-.61 1.14-.88 1.7C9.15 38.3 7.92 39.8 1.3 39.8l-1.22.02-.02-1.27c0-6.26 1.26-7.57 3.93-8.91z" fill="#FF8107"/></svg><svg width="40" height="41" viewBox="0 0 40 41" id="settings" x="90" xmlns="http://www.w3.org/2000/svg"><path d="M37.5 23.89l-3.25.81c-.24.75-.54 1.46-.89 2.15l1.73 2.9c.65 1.04.98 2.56 0 3.54l-1.76 1.77c-.98.98-2.63.8-3.62.11l-2.82-1.8c-.72.37-1.48.7-2.26.95l-.72 3.26c-.22 1.19-1.26 2.49-2.64 2.49h-2.5c-1.38 0-2.23-1.32-2.5-2.51l-.8-3.2c-.85-.27-1.67-.62-2.45-1.03l-2.89 1.84c-1 .69-2.64.87-3.62-.11l-1.77-1.77c-.97-.98-.65-2.5 0-3.54l1.83-3.05c-.32-.65-.6-1.31-.82-2l-3.25-.81C1.31 23.61 0 22.77 0 21.38v-2.5c0-1.38 1.29-2.43 2.48-2.64l3.21-.71c.23-.75.54-1.47.88-2.16l-1.83-3.05c-.65-1.03-.97-2.56 0-3.54l1.77-1.77c.98-.98 2.62-.8 3.62-.11l2.88 1.84c.78-.41 1.59-.75 2.44-1.02l.8-3.22c.27-1.19 1.12-2.5 2.5-2.5h2.5c1.38 0 2.42 1.29 2.64 2.48l.72 3.26c.79.25 1.55.58 2.28.96l2.82-1.8c.99-.69 2.64-.87 3.62.11l1.76 1.77c.98.98.65 2.51 0 3.54l-1.73 2.9c.37.74.7 1.5.95 2.31l3.21.71c1.19.21 2.48 1.26 2.48 2.64v2.5c0 1.39-1.31 2.23-2.5 2.51zm-.52-5.21l-4.62-1.02-.44-1.39c-.19-.62-.45-1.24-.79-1.91l-.63-1.24L32.97 9c.14-.22.21-.44.23-.57l-1.64-1.6c-.16 0-.34.07-.51.18l-4.03 2.58-1.28-.67c-.62-.33-1.26-.59-1.9-.8l-1.36-.44-1.05-4.75c-.04-.18-.2-.4-.18-.43h-2.32c-.08.11-.19.32-.25.61l-1.14 4.57-1.33.42c-.69.22-1.37.51-2.03.86l-1.29.67L8.7 6.96c-.08-.06-.26-.13-.42-.18L6.63 8.43c.03.13.1.35.26.61l2.53 4.22-.61 1.23c-.32.64-.56 1.22-.74 1.79l-.43 1.38-4.72 1.04c-.17.04-.37.18-.41.18H2.5v2.33c.11.08.32.18.61.25l4.59 1.15.42 1.32c.18.53.4 1.08.69 1.65l.61 1.23-2.56 4.27c-.14.22-.2.43-.23.56l1.64 1.6c.17 0 .35-.07.52-.18l4.11-2.63 1.29.68c.66.35 1.35.64 2.03.86l1.34.42L18.71 37c.05.25.16.46.23.56h2.25c.1-.07.23-.27.28-.52l1.03-4.66 1.36-.44c.63-.21 1.26-.47 1.88-.79l1.28-.67 4.11 2.63c.09.06.27.13.43.18l1.64-1.65a1.65 1.65 0 0 0-.25-.6l-2.45-4.09.63-1.24c.3-.59.55-1.19.75-1.79l.43-1.31 4.63-1.16c.25-.06.45-.17.56-.24l.02-2.22c-.05-.09-.26-.25-.54-.31zm-16.96 8.88c-4.15 0-7.53-3.38-7.53-7.53s3.38-7.52 7.53-7.52 7.53 3.37 7.53 7.52c0 4.15-3.38 7.53-7.53 7.53zM20 15.02c-2.76 0-5 2.25-5 5.01s2.24 5.01 5 5.01 5-2.25 5-5.01-2.24-5.01-5-5.01z" fill="#FF8107"/></svg><svg width="40" height="41" viewBox="0 0 40 41" id="wrench" y="81" xmlns="http://www.w3.org/2000/svg"><path d="M39.28 8.46c-.42-.19-.92-.12-1.27.19l-6.3 5.66-5.68-5.84 5.62-6.51c.31-.35.38-.84.19-1.27A1.16 1.16 0 0 0 30.77 0h-.34c-3.48 0-9.48.3-12.16 3.02l-.54.54c-2.86 2.92-3.37 7.72-1.86 11.36L1.46 29.65a5.1 5.1 0 0 0 0 7.15l1.76 1.79c.97.98 2.24 1.48 3.51 1.48 1.28 0 2.55-.5 3.52-1.48l14.63-14.77c1.38.75 3.27 1.24 4.87 1.24 2.55 0 4.96-1.03 6.81-2.91l.53-.54c2.91-2.95 2.87-9.27 2.88-12.05 0-.47-.27-.9-.69-1.1zm-3.93 11.46l-.47.54c-1.39 1.41-3.22 2.09-5.13 2.09-.95 0-2.23-.17-3.1-.54a7.37 7.37 0 0 1-2.15-1.38L8.49 36.8c-.47.48-1.09.74-1.76.74-.66 0-1.29-.26-1.76-.74l-1.75-1.79c-.97-.98-.97-2.59 0-3.57l15.64-15.98a7.42 7.42 0 0 1-1.1-2.46c-.6-2.44-.25-5.81 1.64-7.75l.54-.54c1.62-1.65 5.83-2.14 8.16-2.28l-4.58 5.3c-.41.47-.39 1.19.05 1.64l7.24 7.43c.44.46 1.15.48 1.62.06l5.1-4.59c-.15 2.47-.63 6.07-2.18 7.65z" fill="#FF8107"/></svg></svg>